<?xml version="1.0" encoding="utf-8"?>
<!-- Generator: Adobe Illustrator 22.1.0, SVG Export Plug-In . SVG Version: 6.00 Build 0)  -->
<svg version="1.1" xmlns="http://www.w3.org/2000/svg" xmlns:xlink="http://www.w3.org/1999/xlink" x="0px" y="0px"
	 viewBox="0 0 500 500" style="enable-background:new 0 0 500 500;" xml:space="preserve">
<style type="text/css">
	.st0{fill:#FFFFFF;}
	.st1{fill:url(#SVGID_1_);stroke:#000000;stroke-width:2;stroke-miterlimit:10;}
	.st2{fill:url(#SVGID_2_);stroke:#000000;stroke-width:2;stroke-miterlimit:10;}
	.st3{fill:url(#SVGID_3_);stroke:#000000;stroke-width:2;stroke-miterlimit:10;}
	.st4{fill:url(#SVGID_4_);stroke:#000000;stroke-width:2;stroke-miterlimit:10;}
	.st5{fill:url(#SVGID_5_);stroke:#000000;stroke-width:2;stroke-miterlimit:10;}
	.st6{fill:none;}
	.st7{fill:#42593E;stroke:#000000;stroke-miterlimit:10;}
	.st8{stroke:#000000;stroke-miterlimit:10;}
</style>
<g id="Layer_2">
	<rect class="st0" width="500" height="500"/>
</g>
<g id="Layer_1">
	<g id="Tree">
		
			<linearGradient id="SVGID_1_" gradientUnits="userSpaceOnUse" x1="222.2412" y1="91.5782" x2="223.7143" y2="91.5782" gradientTransform="matrix(0.7071 -0.7071 0.7071 0.7071 -50.1925 227.9787)">
			<stop  offset="0" style="stop-color:#603917"/>
			<stop  offset="0.462" style="stop-color:#4F2D14"/>
			<stop  offset="1" style="stop-color:#402312"/>
		</linearGradient>
		<path class="st1" d="M172,135.2c0.2,0.7,0.6,1.3,1,1.7C171.8,133.9,170.7,131.3,172,135.2z"/>
		
			<linearGradient id="SVGID_2_" gradientUnits="userSpaceOnUse" x1="315.3766" y1="71.0568" x2="315.7543" y2="71.0568" gradientTransform="matrix(0.7071 -0.7071 0.7071 0.7071 -50.1925 227.9787)">
			<stop  offset="0" style="stop-color:#603917"/>
			<stop  offset="0.462" style="stop-color:#4F2D14"/>
			<stop  offset="1" style="stop-color:#402312"/>
		</linearGradient>
		<path class="st2" d="M222.8,54.4c-0.5-0.5-0.8-0.7-1.1-0.7C224.2,56.4,226,58.2,222.8,54.4z"/>
		
			<linearGradient id="SVGID_3_" gradientUnits="userSpaceOnUse" x1="128.2167" y1="145.5394" x2="128.2167" y2="145.5394" gradientTransform="matrix(0.7071 -0.7071 0.7071 0.7071 -50.1925 227.9787)">
			<stop  offset="0" style="stop-color:#603917"/>
			<stop  offset="0.462" style="stop-color:#4F2D14"/>
			<stop  offset="1" style="stop-color:#402312"/>
		</linearGradient>
		<path class="st3" d="M143.4,240.2"/>
		
			<linearGradient id="SVGID_4_" gradientUnits="userSpaceOnUse" x1="315.7393" y1="142.7194" x2="315.8255" y2="142.7194" gradientTransform="matrix(0.7071 -0.7071 0.7071 0.7071 -50.1925 227.9787)">
			<stop  offset="0" style="stop-color:#603917"/>
			<stop  offset="0.462" style="stop-color:#4F2D14"/>
			<stop  offset="1" style="stop-color:#402312"/>
		</linearGradient>
		<path class="st4" d="M273.8,105.5l0.3,0.3C274.1,105.5,274,105.4,273.8,105.5z"/>
		<g>
			<linearGradient id="SVGID_5_" gradientUnits="userSpaceOnUse" x1="38.0437" y1="256.6776" x2="449.4095" y2="256.6776">
				<stop  offset="0" style="stop-color:#563B28"/>
				<stop  offset="0.2907" style="stop-color:#523321"/>
				<stop  offset="1" style="stop-color:#4B2412"/>
			</linearGradient>
			<path class="st5" d="M434.6,489.5c-2.2-2.2-4.4-4.7-6.3-7.5c-5-7.1-8.7-17.8-14-26.2c-11.2-17.7-15-37.6-19.9-48.5
				c-2-4.5-1.5-3.2-2.5-4.4c-1.9-17.9-3-35.6-3.4-52.7c0.1-0.1,0.2-0.2,0.4-0.3c8.5-35.7-29.1-72.3-52.3-78.4c0.5-0.1,0.9-0.4,1-1
				l3.4-45.8l-5.2-24.8l-4-56l-2.9,9.8L330,179l-1.7,15.6c0,0-20.8-11.5-14.4-22.5l-5.2-6.3c0,0-2.9,30.6,22.5,41
				c5.7,13.1-1.3,31.9-5.9,41.8c-1.9,4.1-3.4,6.7-3.4,6.7s-36.1-4.7-61-29.8c2.4-11.9,9.8-52.6,10.5-56.7c7.4,1.5,6.8,4.4,27.9-6.4
				c4.8-2.5,41-45.5,47.9-50.1l-6.3-0.6l-28.9,32.3c0,0-26,29.4-51.9,15c0,0,10.5-53.3,13-54l-10.5-40.2l-0.7,57.9
				c0,0-6.9,2.3-12.7-8.1l5.2-28.3l-12.3-31.5l4.8,34.3c0,0,1.7,20.2-6.9,21.9c-8.7,1.7-13.3-8.7-13.3-8.7s-5.7-42.2-7.9-68.4
				c-1-11.6-1.3-20.2-0.2-20.4c-2.5-2.7-6.9-1.2-6.9-1.2l3.4,32.2l4.1,38.8c0,0-13.8-15-12.7-27.7l-4.6,4.6c0,0,14.4,27.1,15,38.1
				c0.9,17.6,24.2,27.7,30.6,24.8c6.3-2.9-2.3,54.2-20.2,57.1c-17.9,2.9-21.9-17.3-21.9-17.3s-17.3-61.2-15-85.4l-4.6-4.6l3.5,34.6
				c0,0-26.3-27.1-34.2-43.4l4.8,17.4c0,0-7.5,2.9,27.7,35.8l0,17.3c0,0-11.2,5.6-15.1,1.7c0.9,2.2,1.9,4.7,1.9,4.7l17.3,2.2
				c0.7,0.1,1.2,0.6,1.3,1.3c0.6,4.2,4.1,20.7,6.7,27c-6.5-0.8-23.6,2.5-23.6,2.5s-34,22.5-46.2-6.9l6.3-20.2c0,0,26-7.5,24.8-42.1
				c0,0-11,32.9-21.9,31.2c0,0,7.5-17.9-0.6-32.9c0,0-1.7,32.9-15,61.2c0,0-1.7,12.1-21.4,15.6c0,0,10.4-25.4-30-33.5l-4,4
				c0,0,26.5-1.2,27.7,31.2l-15.6,2.9c0,0-24.2-11.5-34.6-2.3c0,0,23.7-7.5,32.9,6.3c0,0,21.4,7.5,46.2-11.5c0,0,15.6,7.5-8.7,64.1
				c0,0-4,11-16.7,9.8C86.5,249.4,87.1,220,87.1,220l-5.2,1.7c0,0,2.3,16.2,6.9,26.5c4.6,10.4-15.6-28.3-46.7-27.1l-4,5.2
				c0,0,19.6-3.5,46.2,25.4l23.7,4l2.9,17.9l-2.3,12.7l-11,7.5l-5.8,12.7l2.3,2.3l7.5-12.1l9.2-4.6l4.6-11.5l12.1,20.2
				c0,0,16.2-3.5,19.6,5.8l2.9-5.2l-21.4-6.3c0,0-13.8-18.5-13.3-36.4c0.6-17.9,17.9-23.7,20.2-75.6c0,0,7.5,12.1,47.9-2.9
				c40.4-15,50.2,41-8.1,56.6l-8.7-11l1.2,9.2c0,0-23-16.6-33.4-17c5.8,1.9,22.4,25,33.4,23.9c0,0,1.7,19,16.7,28.3l-4,7.5
				c0,0-15.6,11-23.1-1.2l1.2,6.9l17.3,4.6l12.1-11c0,0,16.7,13.3,35.2,17.9c0,0,11,21.4-57.1,36.4l3.5,3.5c0,0,57.1-9.8,61.7-36.4
				l37.5,8.2c5.3,12.7,17.2,48.8-10.7,79.9c-22.2,43.5-58.4,42.5-58.4,42.5l3,3c0,0,35.5,0.1,58.8-41.3c0,0,9.6,21.9-21.5,51.8
				l-11.7,4.4c0,0,24.9,8.8,38.9-47.5l7.2,24.6l-8,8l11-3l-3.9-23.3l9.6,5l1.2-2.8l-9.5-5.1l-7-12.6l4.8-9.1
				c0,0,24.2,17.9,24.4,38.7l1.7-1.7c0,0,2-7.3-4.3-18.6l-19.3-21.3c0,0,14.2-38.1,1.3-70l2.3,0.5c9.8,6.3,26.5,8.1,26.5,8.1l3-4.1
				c0.1-0.2,0.3-0.3,0.5-0.5c8.3-8.3,21.4-11,36.6-0.9c10.8,7.1,5.6,26.4,2.6,34.3c-0.3,0.8,0.2,4.3-0.3,4.3c-0.1,6-0.3,12-0.6,17.9
				c-0.6,11.9-1.6,23.7-2.9,35.4c-0.3,0.6-0.5,1.2-0.7,1.9c-1.9,9.5,0,32.6-17.4,44.5c-11,7.4-11.6,22.9-15.4,28.5
				c-1.7,2.5-4,4.5-6.6,6c-6,3.6-19.8,17-12.8,17.3h156.7C454.3,501.8,439.1,494,434.6,489.5z M264.1,168l-9.7,49.8
				c-5-6.4-9.2-14-12.1-22.7C242.3,195.1,244,168.6,264.1,168z M256.1,219.8c0,0,0,0.1,0,0.1c-0.5-0.7-1.1-1.3-1.6-2L256.1,219.8z
				 M228.5,220.5c0.4,14.6,7.7,25,17,33c-9.3,3.8-27.8,8.1-43.2-7.7C209,239.8,228.5,220.5,228.5,220.5z M284.4,292.7
				c-68.7,11-105-40.4-105-40.4c1.3-0.1,7-1.4,12.4-2.8c0.6-0.2,1.3-0.3,1.9-0.5c3.9,4.6,10.5,10.6,20.8,15.4l5.2,11l5.8,1.2
				l-5.2-11c0,0,24.7,0.8,33.5-5.9c1.1,0.7,2.2,1.4,3.2,2c14.4,8.7,29.4,13.9,32.5,20C296,293.8,284.4,292.7,284.4,292.7z
				 M335.6,270C335.2,269.5,336.4,270.1,335.6,270L335.6,270z"/>
		</g>
		<g id="Tree_eyes">
			<path id="Right_whites_of_eye" class="st6" d="M263.6,167.5c0,0,1.1,32-8.6,52C255,219.5,220.1,181.2,263.6,167.5z"/>
			<path id="Right_eye" class="st7" d="M258.7,174.2c2.9,2.9,1.5,18.9-1.3,21.8c-2.9,2.9-7.6,2.9-10.5,0c-2.9-2.9-2.9-7.6,0-10.5
				C249.8,182.7,255.8,171.3,258.7,174.2z"/>
			<circle id="Right_eye_pupil" class="st8" cx="251.6" cy="193.2" r="2.8"/>
			<path id="Left_white_of_eye" class="st6" d="M201.8,245.3l25.7-25.7c0,0,0,14.9,17.2,33.2C244.7,252.7,221.2,265.9,201.8,245.3z"
				/>
			<path id="Right_eye_1_" class="st7" d="M226.2,229.3c2.9,2.9,3.2,16.4,0.3,19.3c-2.9,2.9-7.6,2.9-10.5,0c-2.9-2.9-2.9-7.6,0-10.5
				C218.9,235.3,223.3,226.4,226.2,229.3z"/>
			<circle id="pupils_of_eye_1_" class="st8" cx="221.2" cy="246.4" r="2.8"/>
		</g>
	</g>
</g>
</svg>
